<mxfile host="app.diagrams.net" agent="Mozilla/5.0 (Windows NT 10.0; Win64; x64) AppleWebKit/537.36 (KHTML, like Gecko) Chrome/128.0.0.0 Safari/537.36 AVG/128.0.0.0" version="24.7.17">
  <diagram name="Page-1" id="qQp5Jg9yvUrrFLa1D5ej">
    <mxGraphModel dx="989" dy="509" grid="1" gridSize="10" guides="1" tooltips="1" connect="1" arrows="1" fold="1" page="1" pageScale="1" pageWidth="827" pageHeight="1169" math="0" shadow="0">
      <root>
        <mxCell id="0" />
        <mxCell id="1" parent="0" />
        <mxCell id="8VlYvhy0Y5KqlfjtS9vH-5" value="Views recipes and&lt;div&gt;Interacts with others&lt;/div&gt;" style="edgeStyle=orthogonalEdgeStyle;rounded=0;orthogonalLoop=1;jettySize=auto;html=1;exitX=0.5;exitY=1;exitDx=0;exitDy=0;entryX=0.5;entryY=0;entryDx=0;entryDy=0;" edge="1" parent="1" source="8VlYvhy0Y5KqlfjtS9vH-1" target="8VlYvhy0Y5KqlfjtS9vH-3">
          <mxGeometry relative="1" as="geometry" />
        </mxCell>
        <mxCell id="8VlYvhy0Y5KqlfjtS9vH-1" value="&lt;div&gt;&lt;br&gt;&lt;/div&gt;&lt;div&gt;&lt;br&gt;&lt;/div&gt;&lt;div&gt;&lt;br&gt;&lt;/div&gt;&lt;div&gt;&lt;br&gt;&lt;/div&gt;&lt;div&gt;&lt;br&gt;&lt;/div&gt;&lt;div&gt;&lt;br&gt;&lt;/div&gt;&lt;div&gt;&lt;br&gt;&lt;/div&gt;&lt;b&gt;Customer&lt;/b&gt;&lt;br&gt;(person)&lt;div style=&quot;&quot;&gt;A user of the recipe application with an account&lt;/div&gt;&lt;div style=&quot;&quot;&gt;&lt;br&gt;&lt;/div&gt;" style="shape=actor;whiteSpace=wrap;html=1;fillColor=#d5e8d4;strokeColor=#82b366;" vertex="1" parent="1">
          <mxGeometry x="274" y="50" width="140" height="180" as="geometry" />
        </mxCell>
        <mxCell id="8VlYvhy0Y5KqlfjtS9vH-6" value="reads from&amp;nbsp;&lt;div&gt;and writes to&lt;/div&gt;" style="edgeStyle=orthogonalEdgeStyle;rounded=0;orthogonalLoop=1;jettySize=auto;html=1;exitX=0.5;exitY=1;exitDx=0;exitDy=0;" edge="1" parent="1" source="8VlYvhy0Y5KqlfjtS9vH-3" target="8VlYvhy0Y5KqlfjtS9vH-4">
          <mxGeometry relative="1" as="geometry" />
        </mxCell>
        <mxCell id="8VlYvhy0Y5KqlfjtS9vH-3" value="&lt;b&gt;Recipe Api&lt;/b&gt;&lt;div&gt;(software system)&lt;/div&gt;&lt;div&gt;Allows users to interact with their&lt;br&gt;or others recipes.&lt;/div&gt;&lt;div&gt;&lt;br&gt;&lt;div&gt;&lt;br&gt;&lt;/div&gt;&lt;/div&gt;" style="rounded=1;whiteSpace=wrap;html=1;fillColor=#d5e8d4;strokeColor=#82b366;" vertex="1" parent="1">
          <mxGeometry x="243.5" y="280" width="201" height="100" as="geometry" />
        </mxCell>
        <mxCell id="8VlYvhy0Y5KqlfjtS9vH-4" value="&lt;b&gt;Database&lt;/b&gt;&lt;div&gt;(server)&lt;br&gt;stores user information and recipe&amp;nbsp;&lt;br&gt;information&lt;/div&gt;" style="rounded=1;whiteSpace=wrap;html=1;fillColor=#f5f5f5;fontColor=#333333;strokeColor=#666666;" vertex="1" parent="1">
          <mxGeometry x="243.5" y="430" width="196.5" height="80" as="geometry" />
        </mxCell>
      </root>
    </mxGraphModel>
  </diagram>
</mxfile>
